<svg xmlns="http://www.w3.org/2000/svg" width="25.401" height="13.305" viewBox="0 0 25.401 13.305">
  <g id="logo" transform="translate(-115.629 -51.599)">
    <path id="path3" d="M130.614,56.437a1.676,1.676,0,0,0-1.68,1.68v.269a1.676,1.676,0,0,0,1.68,1.68H136.8a.6.6,0,1,1,0,1.21h-11.02a1.676,1.676,0,0,0-1.68,1.68v.269a1.676,1.676,0,0,0,1.68,1.68H139.35a1.676,1.676,0,0,0,1.68-1.68V58.412a.033.033,0,0,0,0-.012s0-.01,0-.015v-.269a1.676,1.676,0,0,0-1.68-1.68Z" fill="#04c0ff"/>
    <path id="path2" d="M135.452,55.227h3.9a1.676,1.676,0,0,0,1.68-1.68v-.269a1.676,1.676,0,0,0-1.68-1.68h-3.9a1.676,1.676,0,0,0-1.68,1.68v.269A1.676,1.676,0,0,0,135.452,55.227Z" fill="#04c0ff"/>
    <path id="path1" d="M117.309,51.6a1.676,1.676,0,0,0-1.68,1.68v.269a.637.637,0,0,0,.011.144c0,.048-.011.1-.011.144v8.736a1.688,1.688,0,0,1,0,.384v.269a1.676,1.676,0,0,0,1.68,1.68h3.9a1.676,1.676,0,0,0,1.68-1.68v-.269a1.676,1.676,0,0,0-1.68-1.68h-1.344a.6.6,0,0,1,0-1.21h6.182a1.676,1.676,0,0,0,1.68-1.68v-.269a1.676,1.676,0,0,0-1.68-1.68h-6.182a.6.6,0,0,1,0-1.21h11.02a1.676,1.676,0,0,0,1.68-1.68v-.269a1.676,1.676,0,0,0-1.68-1.68Z" fill="#d932d2"/>
  </g>
</svg>
